<?xml version="1.0" encoding="UTF-8" standalone="no"?><!-- Generator: Gravit.io --><svg xmlns="http://www.w3.org/2000/svg" xmlns:xlink="http://www.w3.org/1999/xlink" style="isolation:isolate" viewBox="0 0 1024 768" width="1024pt" height="768pt"><defs><clipPath id="_clipPath_nPrrLODWyU6S35fiFvUymjJFPpdEdW7P"><rect width="1024" height="768"/></clipPath></defs><g clip-path="url(#_clipPath_nPrrLODWyU6S35fiFvUymjJFPpdEdW7P)"><clipPath id="_clipPath_QDXZSBePnQsKR32gGad57iQb4VL8Adin"><rect x="0" y="0" width="1024" height="768" transform="matrix(1,0,0,1,0,0)" fill="rgb(255,255,255)"/></clipPath><g clip-path="url(#_clipPath_QDXZSBePnQsKR32gGad57iQb4VL8Adin)"><g><rect x="0" y="0" width="1024" height="768" transform="matrix(1,0,0,1,0,0)" fill="rgb(46,54,65)"/><g><g><path d=" M 963.884 702.672 L 966.222 703.073 C 967.753 703.334 968.783 704.79 968.522 706.321 L 953.565 793.738 C 953.303 795.269 951.847 796.299 950.316 796.037 L 947.978 795.637 C 946.447 795.375 945.417 793.919 945.679 792.389 L 960.636 704.971 C 960.898 703.441 962.353 702.411 963.884 702.672 Z " fill="rgb(238,83,83)"/><path d=" M 912.313 741.77 L 912.746 739.298 C 913.008 737.806 914.432 736.807 915.924 737.068 L 998.922 751.619 C 1000.414 751.881 1001.413 753.305 1001.152 754.797 L 1000.718 757.269 C 1000.456 758.762 999.033 759.761 997.54 759.499 L 914.543 744.948 C 913.05 744.686 912.051 743.263 912.313 741.77 Z " fill="rgb(238,83,83)"/></g><g><path d=" M 736.225 538.241 L 738.187 536.907 C 739.472 536.035 741.223 536.369 742.096 537.654 L 791.934 611.013 C 792.807 612.298 792.473 614.049 791.188 614.922 L 789.226 616.255 C 787.941 617.128 786.19 616.794 785.317 615.509 L 735.479 542.149 C 734.606 540.865 734.94 539.113 736.225 538.241 Z " fill="rgb(238,83,83)"/><path d=" M 726.176 602.172 L 724.774 600.09 C 723.928 598.834 724.261 597.126 725.518 596.28 L 795.411 549.214 C 796.668 548.368 798.375 548.701 799.221 549.958 L 800.623 552.04 C 801.47 553.296 801.136 555.003 799.88 555.85 L 729.986 602.916 C 728.729 603.762 727.022 603.429 726.176 602.172 Z " fill="rgb(238,83,83)"/></g><g><path d=" M 355.178 740.323 L 356.644 738.458 C 357.604 737.237 359.374 737.025 360.595 737.985 L 430.317 792.797 C 431.538 793.757 431.749 795.528 430.79 796.749 L 429.323 798.614 C 428.364 799.835 426.593 800.046 425.372 799.087 L 355.651 744.274 C 354.43 743.315 354.218 741.544 355.178 740.323 Z " fill="rgb(238,83,83)"/><path d=" M 364.97 804.295 L 363.003 802.735 C 361.816 801.794 361.617 800.066 362.558 798.879 L 414.907 732.849 C 415.848 731.662 417.576 731.462 418.763 732.404 L 420.73 733.963 C 421.917 734.904 422.117 736.632 421.176 737.819 L 368.827 803.849 C 367.885 805.036 366.157 805.236 364.97 804.295 Z " fill="rgb(238,83,83)"/></g><g><path d=" M 71.361 410.354 L 71.718 408.009 C 71.952 406.473 73.389 405.417 74.924 405.651 L 162.599 419.012 C 164.134 419.246 165.191 420.682 164.957 422.218 L 164.6 424.563 C 164.366 426.098 162.929 427.155 161.394 426.921 L 73.719 413.56 C 72.183 413.326 71.127 411.889 71.361 410.354 Z " fill="rgb(238,83,83)"/><path d=" M 111.392 461.204 L 108.912 460.816 C 107.416 460.581 106.391 459.176 106.625 457.679 L 119.661 374.43 C 119.895 372.933 121.301 371.908 122.798 372.143 L 125.277 372.531 C 126.774 372.765 127.799 374.171 127.565 375.668 L 114.529 458.917 C 114.294 460.413 112.889 461.438 111.392 461.204 Z " fill="rgb(238,83,83)"/></g><g><path d=" M 45.504 87.764 L 45.862 85.419 C 46.096 83.883 47.532 82.827 49.067 83.061 L 136.743 96.422 C 138.278 96.656 139.334 98.092 139.101 99.628 L 138.743 101.973 C 138.509 103.508 137.073 104.565 135.537 104.331 L 47.862 90.97 C 46.327 90.736 45.27 89.299 45.504 87.764 Z " fill="rgb(238,83,83)"/><path d=" M 85.536 138.614 L 83.056 138.226 C 81.559 137.991 80.534 136.586 80.769 135.089 L 93.805 51.84 C 94.039 50.343 95.444 49.318 96.941 49.553 L 99.421 49.941 C 100.918 50.175 101.943 51.581 101.708 53.078 L 88.672 136.327 C 88.438 137.823 87.032 138.848 85.536 138.614 Z " fill="rgb(238,83,83)"/></g><g><path d=" M 401.4 473.18 L 403.17 471.601 C 404.329 470.567 406.109 470.668 407.143 471.826 L 466.195 537.995 C 467.229 539.154 467.128 540.934 465.969 541.968 L 464.199 543.548 C 463.041 544.582 461.261 544.481 460.226 543.322 L 401.175 477.153 C 400.14 475.995 400.242 474.214 401.4 473.18 Z " fill="rgb(238,83,83)"/><path d=" M 399.845 537.878 L 398.182 535.999 C 397.178 534.864 397.283 533.128 398.418 532.124 L 461.516 476.276 C 462.65 475.271 464.386 475.377 465.39 476.512 L 467.054 478.391 C 468.058 479.526 467.952 481.262 466.818 482.266 L 403.72 538.114 C 402.586 539.118 400.849 539.013 399.845 537.878 Z " fill="rgb(238,83,83)"/></g><g><path d=" M 323.71 239.987 L 325.587 241.438 C 326.815 242.387 327.042 244.156 326.092 245.385 L 271.854 315.554 C 270.904 316.783 269.136 317.009 267.907 316.059 L 266.03 314.608 C 264.801 313.659 264.575 311.89 265.525 310.661 L 319.763 240.492 C 320.712 239.263 322.481 239.037 323.71 239.987 Z " fill="rgb(238,83,83)"/><path d=" M 259.821 250.304 L 261.364 248.324 C 262.296 247.13 264.022 246.916 265.217 247.847 L 331.674 299.653 C 332.869 300.584 333.082 302.31 332.151 303.505 L 330.608 305.485 C 329.676 306.68 327.95 306.893 326.755 305.962 L 260.298 254.157 C 259.103 253.225 258.889 251.499 259.821 250.304 Z " fill="rgb(238,83,83)"/></g><g><path d=" M 441.162 39.464 L 442.764 37.715 C 443.813 36.569 445.594 36.491 446.739 37.54 L 512.145 97.437 C 513.29 98.486 513.368 100.267 512.319 101.412 L 510.717 103.162 C 509.668 104.307 507.887 104.386 506.742 103.337 L 441.336 43.44 C 440.191 42.391 440.113 40.61 441.162 39.464 Z " fill="rgb(238,83,83)"/><path d=" M 446.119 103.991 L 444.275 102.288 C 443.162 101.26 443.093 99.522 444.12 98.409 L 501.284 36.5 C 502.311 35.387 504.049 35.318 505.163 36.345 L 507.007 38.048 C 508.12 39.076 508.189 40.814 507.161 41.927 L 449.998 103.836 C 448.97 104.949 447.232 105.018 446.119 103.991 Z " fill="rgb(238,83,83)"/></g><g><path d=" M -10.506 665.216 L -9.04 663.351 C -8.08 662.131 -6.31 661.919 -5.089 662.878 L 64.633 717.691 C 65.853 718.65 66.065 720.421 65.106 721.642 L 63.639 723.507 C 62.68 724.728 60.909 724.94 59.688 723.98 L -10.033 669.168 C -11.254 668.208 -11.466 666.437 -10.506 665.216 Z " fill="rgb(238,83,83)"/><path d=" M -0.714 729.188 L -2.681 727.628 C -3.868 726.687 -4.067 724.959 -3.126 723.772 L 49.223 657.742 C 50.164 656.555 51.892 656.356 53.079 657.297 L 55.046 658.856 C 56.233 659.797 56.433 661.525 55.492 662.712 L 3.143 728.742 C 2.201 729.929 0.473 730.129 -0.714 729.188 Z " fill="rgb(238,83,83)"/></g><g><path d=" M 952.459 -21.346 L 954.477 -20.1 C 955.799 -19.285 956.21 -17.55 955.395 -16.228 L 908.83 59.252 C 908.015 60.573 906.28 60.984 904.958 60.169 L 902.939 58.923 C 901.617 58.108 901.206 56.373 902.022 55.051 L 948.586 -20.429 C 949.402 -21.75 951.137 -22.161 952.459 -21.346 Z " fill="rgb(238,83,83)"/><path d=" M 890.007 -4.373 L 891.334 -6.503 C 892.135 -7.79 893.829 -8.184 895.115 -7.383 L 966.648 37.153 C 967.934 37.953 968.328 39.648 967.527 40.934 L 966.201 43.065 C 965.4 44.351 963.706 44.745 962.42 43.944 L 890.887 -0.592 C 889.601 -1.392 889.207 -3.086 890.007 -4.373 Z " fill="rgb(238,83,83)"/></g><g><path d=" M 743.405 224.655 L 745.628 225.483 C 747.083 226.024 747.825 227.646 747.283 229.101 L 716.333 312.213 C 715.791 313.669 714.17 314.41 712.714 313.868 L 710.491 313.04 C 709.036 312.498 708.294 310.877 708.836 309.421 L 739.786 226.31 C 740.328 224.854 741.95 224.113 743.405 224.655 Z " fill="rgb(238,83,83)"/><path d=" M 685.463 253.482 L 686.349 251.133 C 686.884 249.716 688.468 248.999 689.886 249.533 L 768.731 279.263 C 770.148 279.797 770.865 281.382 770.331 282.8 L 769.445 285.148 C 768.911 286.566 767.326 287.283 765.908 286.748 L 687.063 257.019 C 685.646 256.484 684.929 254.9 685.463 253.482 Z " fill="rgb(238,83,83)"/></g><g><path d=" M 1011.363 407.649 L 1013.546 408.577 C 1014.976 409.185 1015.643 410.839 1015.035 412.268 L 980.332 493.884 C 979.725 495.313 978.071 495.98 976.642 495.373 L 974.459 494.444 C 973.03 493.837 972.363 492.183 972.97 490.754 L 1007.673 409.138 C 1008.28 407.708 1009.934 407.041 1011.363 407.649 Z " fill="rgb(238,83,83)"/><path d=" M 952.169 433.808 L 953.161 431.502 C 953.759 430.11 955.375 429.466 956.767 430.065 L 1034.176 463.354 C 1035.568 463.952 1036.212 465.568 1035.613 466.96 L 1034.622 469.266 C 1034.023 470.658 1032.407 471.302 1031.016 470.703 L 953.606 437.414 C 952.215 436.816 951.571 435.2 952.169 433.808 Z " fill="rgb(238,83,83)"/></g><path d=" M 646.278 685.098 L 625.192 695.117 L 616.264 671.236 L 596.519 686.072 L 591.317 663.645 L 572.866 677.913 L 568.187 651.397 L 549.373 666.597 L 542.149 646.601 L 519.813 662.573 L 517.426 657.968 L 543.404 639.399 L 550.961 659.503 L 570.752 643.334 L 575.811 668.94 L 593.184 655.153 L 598.592 678.97 L 617.261 664.55 L 627.01 687.786 L 644.143 679.769 L 646.278 685.098 L 646.278 685.098 Z " fill="rgb(0,210,211)"/><path d=" M 256.275 56.638 L 276.292 68.652 L 261.348 89.307 L 284.634 97.538 L 268.838 114.285 L 290.934 121.752 L 271.443 140.328 L 294.516 147.581 L 281.864 164.667 L 307.53 174.426 L 305.016 178.963 L 275.171 167.609 L 287.73 150.185 L 263.308 142.656 L 281.831 124.267 L 260.732 117.432 L 277.572 99.743 L 255.228 92.178 L 269.181 71.196 L 253.02 61.367 L 256.275 56.638 L 256.275 56.638 Z " fill="rgb(0,210,211)"/><path d=" M -4.797 420.855 L 17.987 425.943 L 10.319 450.258 L 35.013 450.725 L 25.304 471.599 L 48.628 471.716 L 35.989 495.491 L 60.173 495.098 L 53.554 515.302 L 80.989 516.468 L 80.034 521.567 L 48.131 520.204 L 54.554 499.709 L 29.004 500.266 L 40.782 476.973 L 18.604 477.142 L 29.007 455.044 L 5.418 454.912 L 12.042 430.601 L -6.395 426.369 L -4.797 420.855 L -4.797 420.855 Z " fill="rgb(0,210,211)"/><path d=" M 739.211 -32.089 L 745.929 -9.731 L 720.973 -4.514 L 732.654 17.247 L 709.699 19 L 721.015 39.395 L 694.096 40.013 L 706.278 60.908 L 685.421 65.028 L 697.833 89.521 L 692.92 91.184 L 678.491 62.698 L 699.506 58.266 L 686.513 36.259 L 712.59 35.127 L 701.586 15.871 L 725.947 14.124 L 714.515 -6.51 L 738.957 -12.635 L 733.621 -30.783 L 739.211 -32.089 L 739.211 -32.089 Z " fill="rgb(0,210,211)"/><path d=" M 252.711 496.959 L 269.711 512.959 L 250.711 529.959 L 271.711 542.959 L 252.711 555.959 L 272.711 567.959 L 249.711 581.959 L 270.711 593.959 L 254.711 607.959 L 277.711 622.959 L 274.289 626.857 L 247.545 609.409 L 263.526 595.058 L 241.267 582.502 L 263.282 568.478 L 244.121 557.308 L 264.342 543.61 L 244.121 531.461 L 262.222 513.931 L 248.524 500.886 L 252.711 496.959 L 252.711 496.959 Z " fill="rgb(0,210,211)"/><path d=" M 568.813 273.956 L 582.603 292.793 L 560.817 306.035 L 579.089 322.653 L 558.033 331.963 L 575.504 347.415 L 550.334 356.977 L 568.788 372.612 L 550.499 383.453 L 570.372 402.403 L 566.295 405.61 L 543.189 383.569 L 561.523 372.38 L 541.933 355.968 L 566.139 346.202 L 549.341 331.72 L 571.724 321.947 L 554.063 306.308 L 575.062 292.38 L 563.978 277.052 L 568.813 273.956 L 568.813 273.956 Z " fill="rgb(0,210,211)"/><path d=" M 94.043 -93.229 L 115.324 -83.632 L 102.891 -61.375 L 126.978 -55.916 L 113.243 -37.441 L 136.06 -32.603 L 118.868 -11.88 L 142.63 -7.367 L 132.057 11.078 L 158.687 17.776 L 156.719 22.576 L 125.753 14.78 L 136.194 -3.989 L 111.06 -8.618 L 127.312 -29.043 L 105.559 -33.37 L 120.222 -52.903 L 97.148 -57.809 L 108.559 -80.276 L 91.361 -88.153 L 94.043 -93.229 L 94.043 -93.229 Z " fill="rgb(0,210,211)"/><path d=" M 814.329 338.943 L 835.611 348.54 L 823.178 370.797 L 847.265 376.256 L 833.53 394.731 L 856.347 399.569 L 839.155 420.292 L 862.917 424.805 L 852.344 443.25 L 878.973 449.948 L 877.005 454.748 L 846.04 446.952 L 856.48 428.183 L 831.347 423.554 L 847.599 403.129 L 825.846 398.802 L 840.508 379.27 L 817.435 374.363 L 828.845 351.896 L 811.648 344.019 L 814.329 338.943 L 814.329 338.943 Z " fill="rgb(0,210,211)"/><path d=" M 957.37 226.114 L 954.373 202.962 L 979.845 201.868 L 971.853 178.498 L 994.788 180.497 L 986.935 158.535 L 1013.596 162.297 L 1004.97 139.701 L 1026.219 139.023 L 1017.949 112.839 L 1023.067 111.996 L 1032.679 142.447 L 1011.222 143.408 L 1020.469 167.232 L 994.555 164.114 L 1002.285 184.902 L 977.964 182.669 L 985.893 204.886 L 960.781 206.96 L 963.098 225.734 L 957.37 226.114 L 957.37 226.114 Z " fill="rgb(0,210,211)"/><path d=" M 985.588 586.622 L 1005.581 574.568 L 1016.825 597.449 L 1035.008 580.734 L 1042.401 602.537 L 1059.351 586.515 L 1066.628 612.439 L 1083.848 595.454 L 1093.013 614.637 L 1113.661 596.536 L 1116.491 600.883 L 1092.476 621.928 L 1082.968 602.669 L 1064.873 620.716 L 1057.307 595.735 L 1041.383 611.172 L 1033.647 588.007 L 1016.494 604.201 L 1004.497 582.042 L 988.24 591.714 L 985.588 586.622 L 985.588 586.622 Z " fill="rgb(0,210,211)"/><path d=" M 777.392 686.158 L 798.673 695.755 L 786.24 718.013 L 810.327 723.471 L 796.592 741.946 L 819.409 746.785 L 802.217 767.507 L 825.979 772.02 L 815.406 790.465 L 842.035 797.163 L 840.068 801.963 L 809.102 794.167 L 819.543 775.398 L 794.409 770.769 L 810.661 750.344 L 788.908 746.017 L 803.571 726.485 L 780.497 721.578 L 791.908 699.111 L 774.71 691.234 L 777.392 686.158 L 777.392 686.158 Z " fill="rgb(0,210,211)"/><path d=" M 19.062 115.298 L 32.31 134.52 L 10.155 147.137 L 27.946 164.268 L 6.633 172.974 L 23.657 188.918 L -1.776 197.759 L 16.225 213.913 L -2.365 224.229 L 16.959 243.737 L 12.792 246.827 L -9.676 224.136 L 8.97 213.475 L -10.145 196.511 L 14.329 187.439 L -2.048 172.483 L 20.604 163.352 L 3.396 147.217 L 24.783 133.893 L 14.141 118.255 L 19.062 115.298 L 19.062 115.298 Z " fill="rgb(0,210,211)"/><g><path d=" M 71.361 410.354 L 71.718 408.009 C 71.952 406.473 73.389 405.417 74.924 405.651 L 162.599 419.012 C 164.134 419.246 165.191 420.682 164.957 422.218 L 164.6 424.563 C 164.366 426.098 162.929 427.155 161.394 426.921 L 73.719 413.56 C 72.183 413.326 71.127 411.889 71.361 410.354 Z " fill="rgb(238,83,83)"/><path d=" M 111.392 461.204 L 108.912 460.816 C 107.416 460.581 106.391 459.176 106.625 457.679 L 119.661 374.43 C 119.895 372.933 121.301 371.908 122.798 372.143 L 125.277 372.531 C 126.774 372.765 127.799 374.171 127.565 375.668 L 114.529 458.917 C 114.294 460.413 112.889 461.438 111.392 461.204 Z " fill="rgb(238,83,83)"/></g><g><path d=" M 71.361 410.354 L 71.718 408.009 C 71.952 406.473 73.389 405.417 74.924 405.651 L 162.599 419.012 C 164.134 419.246 165.191 420.682 164.957 422.218 L 164.6 424.563 C 164.366 426.098 162.929 427.155 161.394 426.921 L 73.719 413.56 C 72.183 413.326 71.127 411.889 71.361 410.354 Z " fill="rgb(238,83,83)"/><path d=" M 111.392 461.204 L 108.912 460.816 C 107.416 460.581 106.391 459.176 106.625 457.679 L 119.661 374.43 C 119.895 372.933 121.301 371.908 122.798 372.143 L 125.277 372.531 C 126.774 372.765 127.799 374.171 127.565 375.668 L 114.529 458.917 C 114.294 460.413 112.889 461.438 111.392 461.204 Z " fill="rgb(238,83,83)"/></g><g><path d=" M 71.361 410.354 L 71.718 408.009 C 71.952 406.473 73.389 405.417 74.924 405.651 L 162.599 419.012 C 164.134 419.246 165.191 420.682 164.957 422.218 L 164.6 424.563 C 164.366 426.098 162.929 427.155 161.394 426.921 L 73.719 413.56 C 72.183 413.326 71.127 411.889 71.361 410.354 Z " fill="rgb(238,83,83)"/><path d=" M 111.392 461.204 L 108.912 460.816 C 107.416 460.581 106.391 459.176 106.625 457.679 L 119.661 374.43 C 119.895 372.933 121.301 371.908 122.798 372.143 L 125.277 372.531 C 126.774 372.765 127.799 374.171 127.565 375.668 L 114.529 458.917 C 114.294 460.413 112.889 461.438 111.392 461.204 Z " fill="rgb(238,83,83)"/></g></g></g></g></g></svg>