<svg id="Capa_1" enable-background="new 0 0 512.004 512.004" height="512" viewBox="0 0 512.004 512.004" width="512" xmlns="http://www.w3.org/2000/svg"><g><g><g><circle cx="256.002" cy="256.004" fill="#ecf4ff" r="248.5"/><path d="m256.002 7.504c-5.038 0-10.036.168-15 .463 130.256 7.758 233.5 115.832 233.5 248.037s-103.244 240.279-233.5 248.037c4.964.295 9.962.463 15 .463 137.243 0 248.5-111.257 248.5-248.5s-111.257-248.5-248.5-248.5z" fill="#ddeafb"/><circle cx="256.002" cy="256.004" fill="#cbe2ff" r="181.321"/><path d="m256.002 74.683c-5.052 0-10.053.217-15 .622 93.122 7.627 166.321 85.611 166.321 180.7s-73.199 173.072-166.321 180.699c4.947.405 9.948.622 15 .622 100.141 0 181.321-81.18 181.321-181.321s-81.18-181.322-181.321-181.322z" fill="#bed8fb"/></g><g><path d="m10.305 398.962c-3.092 3.092-3.687 7.874-1.482 11.65 6.497 11.127 15.998 24.765 29.62 38.341 13.419 13.373 26.876 22.737 37.893 29.171 3.775 2.205 8.556 1.608 11.647-1.484l388.646-388.645c3.099-3.099 3.716-7.906 1.471-11.671-5.907-9.909-13.875-21.281-24.539-32.763-14.99-16.14-30.422-27.239-42.939-34.71-3.766-2.247-8.575-1.632-11.675 1.469z" fill="#ffe07d"/><path d="m478.101 76.325c-5.907-9.91-13.875-21.281-24.539-32.764-14.99-16.14-30.422-27.24-42.939-34.71-3.765-2.247-8.574-1.632-11.675 1.469l-12.701 12.701c7.271 5.712 14.848 12.5 22.315 20.54.131.141.261.282.391.422 17.915 19.404 17.13 49.559-1.545 68.234l-351.839 351.838c7.409 5.774 14.486 10.4 20.768 14.069 3.775 2.204 8.556 1.607 11.647-1.484l388.646-388.645c3.099-3.099 3.715-7.906 1.471-11.67z" fill="#ffd064"/></g><g><circle cx="328.502" cy="378.613" fill="#e2dfe3" r="68.5"/><path d="m328.502 310.113c-5.155 0-10.17.588-15 1.667 30.613 6.842 53.5 34.156 53.5 66.833s-22.887 59.99-53.5 66.833c4.83 1.08 9.845 1.667 15 1.667 37.832 0 68.5-30.668 68.5-68.5s-30.668-68.5-68.5-68.5z" fill="#d3ced4"/><circle cx="328.502" cy="378.613" fill="#fff" r="38.5"/></g><circle cx="428.973" cy="256.004" fill="#b3e59f" r="38.5"/><path d="m428.973 217.504c-5.318 0-10.388 1.084-15 3.043 13.798 5.859 23.5 19.546 23.5 35.457s-9.702 29.597-23.5 35.457c4.612 1.958 9.682 3.043 15 3.043 21.229 0 38.5-17.271 38.5-38.5s-17.271-38.5-38.5-38.5z" fill="#95d6a4"/></g><path d="m213.85 235.652c-4.142 0-7.5 3.357-7.5 7.5 0 4.142 3.358 7.5 7.5 7.5s7.5-3.358 7.5-7.5c0-4.143-3.358-7.5-7.5-7.5zm32.152-21.855c0-4.142-3.358-7.5-7.5-7.5s-7.5 3.358-7.5 7.5 3.358 7.5 7.5 7.5 7.5-3.358 7.5-7.5zm37.5 22.5c-4.142 0-7.5 3.358-7.5 7.5s3.358 7.5 7.5 7.5 7.5-3.358 7.5-7.5-3.358-7.5-7.5-7.5zm-39.652 29.355c-4.142 0-7.5 3.357-7.5 7.5 0 4.142 3.358 7.5 7.5 7.5s7.5-3.358 7.5-7.5c0-4.143-3.358-7.5-7.5-7.5zm-45 60c-4.142 0-7.5 3.357-7.5 7.5 0 4.142 3.358 7.5 7.5 7.5s7.5-3.358 7.5-7.5c0-4.143-3.358-7.5-7.5-7.5zm-45-30c-4.142 0-7.5 3.357-7.5 7.5 0 4.142 3.358 7.5 7.5 7.5s7.5-3.358 7.5-7.5c0-4.143-3.358-7.5-7.5-7.5zm45-15c-4.142 0-7.5 3.357-7.5 7.5 0 4.142 3.358 7.5 7.5 7.5s7.5-3.358 7.5-7.5c0-4.143-3.358-7.5-7.5-7.5zm134.379 105.211c0 4.142 3.358 7.5 7.5 7.5s7.5-3.358 7.5-7.5-3.358-7.5-7.5-7.5-7.5 3.358-7.5 7.5zm-16.954 7.5c4.142 0 7.5-3.358 7.5-7.5s-3.358-7.5-7.5-7.5-7.5 3.358-7.5 7.5 3.358 7.5 7.5 7.5zm12.227-22.5c4.142 0 7.5-3.358 7.5-7.5s-3.358-7.5-7.5-7.5-7.5 3.358-7.5 7.5 3.358 7.5 7.5 7.5zm-46 7.75c0 25.364 20.636 46 46 46s46-20.636 46-46-20.636-46-46-46-46 20.636-46 46zm46-31c17.094 0 31 13.906 31 31s-13.906 31-31 31-31-13.906-31-31 13.906-31 31-31zm137.353-238.236 16.077-16.078c5.54-5.54 6.613-14.1 2.61-20.815-7.274-12.202-15.85-23.65-25.486-34.027-13.043-14.043-28.046-26.171-44.591-36.046-6.716-4.008-15.278-2.936-20.822 2.605l-22.364 22.364c-35.508-17.921-75.238-27.376-115.277-27.376-68.379 0-132.666 26.629-181.019 74.981s-74.981 112.64-74.981 181.019c0 40.036 9.456 79.766 27.38 115.275l-22.379 22.379c-5.489 5.487-6.581 14.014-2.656 20.736 8.503 14.56 18.866 27.975 30.804 39.871 11.779 11.739 25.037 21.945 39.405 30.335 6.674 3.897 15.212 2.862 20.732-2.657l16.086-16.086c43.106 30.208 93.657 46.147 146.628 46.147 68.379 0 132.666-26.629 181.019-74.981s74.981-112.64 74.981-181.019c0-52.971-15.939-103.521-46.147-146.627zm-450.853 146.627c0-64.372 25.068-124.893 70.588-170.412s106.04-70.588 170.412-70.588c36.036 0 71.8 8.13 104.074 23.579l-39.827 39.828c-20.552-7.449-42.139-11.227-64.247-11.227-104.116 0-188.82 84.704-188.82 188.82 0 22.104 3.776 43.693 11.221 64.254l-39.818 39.818c-15.451-32.276-23.583-68.039-23.583-104.072zm67.679 215.332c-.671.673-1.725.801-2.562.312-13.266-7.746-25.506-17.169-36.381-28.007-11.019-10.983-20.588-23.368-28.438-36.811-.489-.839-.363-1.893.31-2.564l215.236-215.236c2.929-2.93 2.929-7.678 0-10.607-2.93-2.928-7.678-2.928-10.607 0l-130.01 130.01c-5.34-16.886-8.047-34.47-8.047-52.428 0-95.845 77.976-173.82 173.82-173.82 17.962 0 35.545 2.708 52.424 8.051l-63.477 63.478c-2.929 2.93-2.929 7.678 0 10.607 2.929 2.928 7.677 2.928 10.607 0l71.833-71.833c.063-.062.126-.123.187-.187l50.313-50.313c.069-.066.137-.135.204-.204l26.159-26.16c.679-.68 1.718-.815 2.528-.332 15.321 9.145 29.212 20.373 41.287 33.373 8.919 9.604 16.857 20.203 23.592 31.5.482.81.346 1.85-.333 2.527zm300.292-215.332c0 23.592 17.856 43.083 40.761 45.693-4.977 18.262-12.993 35.731-23.621 51.491-10.484-29.438-38.62-50.574-71.611-50.574-9.37 0-18.521 1.687-27.2 5.014-3.867 1.482-5.801 5.819-4.318 9.688 1.481 3.867 5.819 5.804 9.688 4.318 6.958-2.667 14.304-4.02 21.831-4.02 33.636 0 61 27.364 61 61s-27.364 61-61 61-61-27.364-61-61c0-14.662 5.277-28.834 14.859-39.902 2.712-3.132 2.37-7.868-.761-10.579-3.132-2.711-7.867-2.371-10.58.761-11.941 13.795-18.519 31.453-18.519 49.721 0 19.372 7.296 37.065 19.271 50.502-5.235.472-10.504.709-15.771.709-30.824 0-60.769-8.072-87.175-23.42l237.572-237.572c7.588 13.04 13.396 26.93 17.342 41.478-22.909 2.605-40.768 22.098-40.768 45.692zm46-31c17.094 0 31 13.906 31 31s-13.906 31-31 31-31-13.906-31-31 13.906-31 31-31zm-2.559 201.412c-45.52 45.52-106.04 70.588-170.412 70.588-48.978 0-95.755-14.472-135.849-41.925l37.736-37.736c29.512 17.996 63.298 27.481 98.114 27.481 10.421 0 20.849-.867 31.051-2.558 11.931 7.796 26.165 12.347 41.449 12.347 41.906 0 76-34.094 76-76 0-1.925-.096-3.826-.237-5.715 16.738-21.22 28.834-45.993 35.2-72.116 20.323-4.762 35.508-23.024 35.508-44.778s-15.184-40.016-35.507-44.778c-4.583-18.863-12.011-36.755-22.128-53.332l37.739-37.739c27.453 40.095 41.925 86.872 41.925 135.85-.001 64.371-25.069 124.892-70.589 170.411zm-127.912-280.119c-4.142 0-7.5 3.358-7.5 7.5s3.358 7.5 7.5 7.5 7.5-3.358 7.5-7.5-3.358-7.5-7.5-7.5zm30 30c-4.142 0-7.5 3.358-7.5 7.5s3.358 7.5 7.5 7.5 7.5-3.358 7.5-7.5-3.358-7.5-7.5-7.5zm-45 15c-4.142 0-7.5 3.358-7.5 7.5s3.358 7.5 7.5 7.5 7.5-3.358 7.5-7.5-3.358-7.5-7.5-7.5z"/></g></svg>