<svg height="512pt" viewBox="0 0 512 512" width="512pt" xmlns="http://www.w3.org/2000/svg"><path d="m512 256c0 141.386719-114.613281 256-256 256s-256-114.613281-256-256 114.613281-256 256-256 256 114.613281 256 256zm0 0" fill="#d66231"/><path d="m256 0c-5.191406 0-10.339844.171875-15.453125.476562 134.1875 7.992188 240.546875 119.328126 240.546875 255.523438s-106.359375 247.53125-240.546875 255.523438c5.113281.304687 10.261719.476562 15.453125.476562 141.386719 0 256-114.613281 256-256s-114.613281-256-256-256zm0 0" fill="#b05128"/><path d="m256 481.09375c-60.125 0-116.652344-23.414062-159.164062-65.929688-42.515626-42.511718-65.929688-99.039062-65.929688-159.164062s23.414062-116.652344 65.929688-159.164062c42.511718-42.515626 99.039062-65.929688 159.164062-65.929688s116.652344 23.414062 159.164062 65.929688c42.515626 42.511718 65.929688 99.039062 65.929688 159.164062s-23.410156 116.652344-65.929688 159.164062c-42.511718 42.515626-99.039062 65.929688-159.164062 65.929688zm0 0" fill="#fff7e6"/><path d="m415.164062 96.835938c-42.511718-42.515626-99.039062-65.929688-159.164062-65.929688-5.179688 0-10.332031.183594-15.453125.53125 54.308594 3.65625 104.859375 26.542969 143.714844 65.394531 42.511719 42.515625 65.925781 99.042969 65.925781 159.167969s-23.410156 116.648438-65.925781 159.164062c-38.855469 38.851563-89.40625 61.738282-143.714844 65.398438 5.121094.34375 10.273437.53125 15.453125.53125 60.125 0 116.652344-23.414062 159.164062-65.929688 42.515626-42.515624 65.929688-99.042968 65.929688-159.167968s-23.414062-116.648438-65.929688-159.160156zm0 0" fill="#ebe3d4"/><path d="m254.660156 107.863281c-15.851562-8.363281-32.789062-7.394531-37.835937 2.164063-5.042969 9.5625 3.714843 24.089844 19.566406 32.457031 15.847656 8.363281 32.789063 7.394531 37.832031-2.167969 5.046875-9.558594-3.714844-24.089844-19.5625-32.453125zm0 0" fill="#e8a774"/><path d="m383.394531 211.234375c-8.398437-6.804687-24.355469-1.035156-35.636719 12.886719-11.285156 13.925781-13.625 30.730468-5.226562 37.535156s24.355469 1.035156 35.636719-12.886719c11.285156-13.925781 13.625-30.730469 5.226562-37.535156zm0 0" fill="#e8a774"/><path d="m170.828125 243.171875c-15.523437-8.960937-32.484375-8.636719-37.890625.722656-5.40625 9.363281 2.796875 24.214844 18.316406 33.175781 15.519532 8.960938 32.484375 8.636719 37.890625-.722656 5.402344-9.363281-2.796875-24.214844-18.316406-33.175781zm0 0" fill="#ba552a"/><path d="m274.925781 195.332031c-3.738281-10.140625-20.398437-13.339843-37.214843-7.144531-16.816407 6.195312-27.421876 19.441406-23.683594 29.582031 3.738281 10.144531 20.398437 13.34375 37.214844 7.148438 16.816406-6.195313 27.417968-19.441407 23.683593-29.585938zm0 0" fill="#e8a774"/><path d="m173.101562 127.378906c-9.5625-5.046875-24.089843 3.714844-32.457031 19.5625-8.363281 15.851563-7.394531 32.789063 2.167969 37.835938 9.558594 5.042968 24.089844-3.714844 32.453125-19.566406 8.363281-15.847657 7.394531-32.789063-2.164063-37.832032zm0 0" fill="#ba552a"/><path d="m282.835938 280.195312c-17.472657-3.988281-33.585938 1.324219-35.992188 11.863282-2.402344 10.539062 9.808594 22.3125 27.28125 26.300781s33.585938-1.324219 35.992188-11.859375c2.40625-10.539062-9.808594-22.316406-27.28125-26.304688zm0 0" fill="#e8a774"/><path d="m387.839844 307.082031c-12.671875-12.671875-29.140625-16.75-36.785156-9.105469-7.644532 7.644532-3.566407 24.113282 9.105468 36.785157 12.671875 12.675781 29.144532 16.75 36.785156 9.109375 7.644532-7.644532 3.566407-24.113282-9.105468-36.789063zm0 0" fill="#e8a774"/><path d="m298.851562 382.214844c-2.402343-10.539063-18.515624-15.855469-35.988281-11.871094-17.476562 3.980469-29.691406 15.753906-27.292969 26.292969 2.402344 10.539062 18.515626 15.855469 35.992188 11.875 17.472656-3.984375 29.691406-15.757813 27.289062-26.296875zm0 0" fill="#ba552a"/><path d="m169.15625 317.878906c-8.398438-6.808594-24.351562-1.035156-35.636719 12.886719-11.28125 13.925781-13.621093 30.730469-5.222656 37.535156 8.398437 6.804688 24.351563 1.035157 35.636719-12.886719 11.28125-13.925781 13.621094-30.730468 5.222656-37.535156zm0 0" fill="#e8a774"/><path d="m354.601562 130.386719c-8.398437-6.804688-24.351562-1.035157-35.636718 12.890625-11.28125 13.921875-13.621094 30.726562-5.222656 37.53125 8.398437 6.808594 24.351562 1.039062 35.636718-12.886719 11.285156-13.921875 13.621094-30.726563 5.222656-37.535156zm0 0" fill="#ba552a"/><g fill="#ffb300"><path d="m210.09375 175.921875c.125 0 .25 0 .375-.007813 4.136719-.203124 7.324219-3.722656 7.121094-7.859374l-.914063-18.523438c-.203125-4.136719-3.695312-7.324219-7.859375-7.121094-4.136718.203125-7.324218 3.722656-7.121094 7.859375l.914063 18.523438c.195313 4.011719 3.511719 7.128906 7.484375 7.128906zm0 0"/><path d="m315.039062 201.402344c-3.558593-2.113282-8.160156-.941406-10.277343 2.617187l-9.464844 15.945313c-2.113281 3.5625-.941406 8.164062 2.617187 10.277344 1.203126.714843 2.523438 1.054687 3.824219 1.054687 2.558594 0 5.054688-1.3125 6.457031-3.671875l9.464844-15.945312c2.113282-3.5625.941406-8.164063-2.621094-10.277344zm0 0"/><path d="m292.765625 132.378906c1.203125.710938 2.519531 1.050782 3.824219 1.050782 2.558594 0 5.050781-1.3125 6.453125-3.671876l9.46875-15.945312c2.113281-3.5625.941406-8.164062-2.621094-10.277344-3.558594-2.113281-8.160156-.941406-10.277344 2.617188l-9.46875 15.945312c-2.113281 3.5625-.941406 8.164063 2.621094 10.28125zm0 0"/><path d="m162.375 203.324219-18.539062-.304688c-.042969 0-.085938 0-.125 0-4.085938 0-7.429688 3.277344-7.496094 7.378907-.070313 4.140624 3.230468 7.550781 7.375 7.621093l18.539062.304688h.125c4.085938 0 7.429688-3.277344 7.496094-7.378907.070312-4.140624-3.234375-7.550781-7.375-7.621093zm0 0"/><path d="m415.382812 266.328125c-1.777343-3.742187-6.25-5.335937-9.992187-3.5625l-16.753906 7.941406c-3.746094 1.773438-5.339844 6.246094-3.566407 9.992188 1.285157 2.703125 3.976563 4.289062 6.78125 4.289062 1.078126 0 2.171876-.234375 3.210938-.726562l16.753906-7.941407c3.742188-1.777343 5.339844-6.25 3.566406-9.992187zm0 0"/><path d="m301.289062 249.074219-17.402343-6.40625c-3.886719-1.433594-8.195313.558593-9.628907 4.445312-1.433593 3.886719.558594 8.199219 4.445313 9.628907l17.402344 6.410156c.851562.3125 1.730469.460937 2.589843.460937 3.050782 0 5.921876-1.875 7.039063-4.910156 1.429687-3.882813-.558594-8.195313-4.445313-9.628906zm0 0"/><path d="m327.539062 342.3125c-.785156-4.066406-4.714843-6.726562-8.785156-5.941406-4.066406.785156-6.730468 4.71875-5.941406 8.785156l3.511719 18.207031c.691406 3.585938 3.835937 6.082031 7.355469 6.082031.472656 0 .949218-.046874 1.429687-.136718 4.066406-.785156 6.730469-4.71875 5.945313-8.785156zm0 0"/><path d="m220.972656 312.109375-12.863281 13.359375c-2.871094 2.984375-2.78125 7.730469.203125 10.605469 1.453125 1.402343 3.328125 2.097656 5.199219 2.097656 1.96875 0 3.933593-.769531 5.402343-2.300781l12.863282-13.355469c2.871094-2.984375 2.78125-7.734375-.203125-10.605469-2.980469-2.875-7.730469-2.785156-10.601563.199219zm0 0"/><path d="m209.695312 370.929688-17.226562-6.855469c-3.847656-1.53125-8.210938.34375-9.742188 4.195312-1.53125 3.847657.347657 8.210938 4.195313 9.742188l17.226563 6.855469c.910156.363281 1.847656.535156 2.773437.535156 2.980469 0 5.800781-1.789063 6.96875-4.730469 1.535156-3.847656-.34375-8.207031-4.195313-9.742187zm0 0"/><path d="m211.847656 274.808594c1.148438.632812 2.390625.933594 3.613282.933594 2.644531 0 5.207031-1.402344 6.574218-3.882813l8.953125-16.238281c1.996094-3.628906.679688-8.1875-2.949219-10.1875-3.625-2-8.1875-.679688-10.1875 2.945312l-8.953124 16.242188c-2 3.625-.679688 8.1875 2.949218 10.1875zm0 0"/></g></svg>