<svg height="511pt" viewBox="1 -21 511.999 511" width="511pt" xmlns="http://www.w3.org/2000/svg"><path d="m419.359375 342.367188-141.191406-244.644532c-9.839844-17.050781-34.453125-17.050781-44.292969 0l-141.1875 244.644532c-9.789062 16.957031 2.453125 38.152343 22.035156 38.152343h282.601563c19.582031 0 31.820312-21.195312 22.035156-38.152343zm0 0" fill="#f18829"/><path d="m445.566406 434.339844c-4.046875 0-372.710937 0-379.085937 0-2.457031 0-4.875-.175782-7.253907-.484375 7.601563 17.183593 24.121094 29.097656 43.28125 29.097656h307.027344c19.164063 0 35.679688-11.914063 43.285156-29.097656-2.378906.308593-4.796874.484375-7.253906.484375zm0 0" fill="#4ec465"/><path d="m106.808594 434.339844c-23.777344 0-39.074219 0-40.328125 0-2.457031 0-4.875-.175782-7.253907-.484375 7.601563 17.183593 24.121094 29.097656 43.28125 29.097656h47.359376c-18.980469 0-35.359376-11.691406-43.058594-28.613281zm0 0" fill="#40ad58"/><g fill="#f7b239"><path d="m461.132812 325.894531c0 28.320313-22.960937 51.277344-51.277343 51.277344-28.320313 0-51.277344-22.957031-51.277344-51.277344 0-28.320312 22.957031-51.277343 51.277344-51.277343 28.316406 0 51.277343 22.957031 51.277343 51.277343zm0 0"/><path d="m358.578125 325.894531c0 28.320313-22.957031 51.277344-51.277344 51.277344-28.320312 0-51.277343-22.957031-51.277343-51.277344 0-28.320312 22.957031-51.277343 51.277343-51.277343 28.320313 0 51.277344 22.957031 51.277344 51.277343zm0 0"/><path d="m256.023438 325.894531c0 28.320313-22.957032 51.277344-51.277344 51.277344-28.320313 0-51.277344-22.957031-51.277344-51.277344 0-28.320312 22.957031-51.277343 51.277344-51.277343 28.320312 0 51.277344 22.957031 51.277344 51.277343zm0 0"/><path d="m409.855469 237.042969c0 28.320312-22.960938 51.277343-51.277344 51.277343-28.320313 0-51.277344-22.957031-51.277344-51.277343 0-28.320313 22.957031-51.277344 51.277344-51.277344 28.316406 0 51.277344 22.957031 51.277344 51.277344zm0 0"/><path d="m307.300781 237.042969c0 28.320312-22.957031 51.277343-51.277343 51.277343-28.320313 0-51.277344-22.957031-51.277344-51.277343 0-28.320313 22.957031-51.277344 51.277344-51.277344 28.320312 0 51.277343 22.957031 51.277343 51.277344zm0 0"/><path d="m358.578125 148.203125c0 28.320313-22.957031 51.277344-51.277344 51.277344-28.320312 0-51.277343-22.957031-51.277343-51.277344 0-28.316406 22.957031-51.277344 51.277343-51.277344 28.320313 0 51.277344 22.960938 51.277344 51.277344zm0 0"/><path d="m307.300781 59.347656c0 28.316406-22.957031 51.277344-51.277343 51.277344-28.320313 0-51.277344-22.960938-51.277344-51.277344 0-28.320312 22.957031-51.277344 51.277344-51.277344 28.320312 0 51.277343 22.957032 51.277343 51.277344zm0 0"/><path d="m256.023438 148.203125c0 28.320313-22.957032 51.277344-51.277344 51.277344-28.320313 0-51.277344-22.957031-51.277344-51.277344 0-28.316406 22.957031-51.277344 51.277344-51.277344 28.320312 0 51.277344 22.960938 51.277344 51.277344zm0 0"/><path d="m204.746094 237.042969c0 28.320312-22.957032 51.277343-51.277344 51.277343s-51.277344-22.957031-51.277344-51.277343c0-28.320313 22.957032-51.277344 51.277344-51.277344s51.277344 22.957031 51.277344 51.277344zm0 0"/><path d="m153.46875 325.894531c0 28.320313-22.957031 51.277344-51.277344 51.277344-28.316406 0-51.273437-22.957031-51.273437-51.277344 0-28.320312 22.957031-51.277343 51.273437-51.277343 28.320313 0 51.277344 22.957031 51.277344 51.277343zm0 0"/></g><path d="m388.578125 325.894531c0-23.097656 15.277344-42.625 36.277344-49.042969-4.746094-1.449218-9.78125-2.234374-15-2.234374-28.320313 0-51.277344 22.957031-51.277344 51.277343 0 28.320313 22.957031 51.277344 51.277344 51.277344 5.21875 0 10.253906-.785156 15-2.234375-21-6.414062-36.277344-25.941406-36.277344-49.042969zm0 0" fill="#f49d31"/><path d="m286.023438 325.894531c0-23.097656 15.277343-42.625 36.277343-49.042969-4.746093-1.449218-9.78125-2.234374-15-2.234374-28.320312 0-51.277343 22.957031-51.277343 51.277343 0 28.320313 22.957031 51.277344 51.277343 51.277344 5.21875 0 10.253907-.785156 15-2.234375-21-6.414062-36.277343-25.941406-36.277343-49.042969zm0 0" fill="#f49d31"/><path d="m183.472656 325.894531c0-23.097656 15.273438-42.625 36.273438-49.042969-4.742188-1.449218-9.78125-2.234374-15-2.234374-28.320313 0-51.277344 22.957031-51.277344 51.277343 0 28.320313 22.957031 51.277344 51.277344 51.277344 5.21875 0 10.257812-.785156 15-2.234375-21-6.414062-36.273438-25.941406-36.273438-49.042969zm0 0" fill="#f49d31"/><path d="m337.300781 237.042969c0-23.097657 15.277344-42.625 36.277344-49.042969-4.746094-1.449219-9.78125-2.234375-15-2.234375-28.320313 0-51.277344 22.957031-51.277344 51.277344 0 28.320312 22.957031 51.277343 51.277344 51.277343 5.21875 0 10.253906-.785156 15-2.238281-21-6.414062-36.277344-25.941406-36.277344-49.039062zm0 0" fill="#f49d31"/><path d="m234.75 237.042969c0-23.097657 15.273438-42.625 36.273438-49.042969-4.746094-1.449219-9.78125-2.234375-15-2.234375-28.320313 0-51.277344 22.957031-51.277344 51.277344 0 28.320312 22.957031 51.277343 51.277344 51.277343 5.21875 0 10.253906-.785156 15-2.238281-21-6.414062-36.273438-25.941406-36.273438-49.039062zm0 0" fill="#f49d31"/><path d="m286.023438 148.203125c0-23.097656 15.277343-42.625 36.277343-49.039063-4.746093-1.453124-9.78125-2.238281-15-2.238281-28.320312 0-51.277343 22.957031-51.277343 51.277344s22.957031 51.277344 51.277343 51.277344c5.21875 0 10.253907-.785157 15-2.234375-21-6.417969-36.277343-25.941406-36.277343-49.042969zm0 0" fill="#f49d31"/><path d="m234.75 59.347656c0-23.101562 15.273438-42.628906 36.273438-49.042968-4.746094-1.449219-9.78125-2.234376-15-2.234376-28.320313 0-51.277344 22.957032-51.277344 51.277344 0 28.316406 22.957031 51.277344 51.277344 51.277344 5.21875 0 10.253906-.785156 15-2.238281-21-6.414063-36.273438-25.941407-36.273438-49.039063zm0 0" fill="#f49d31"/><path d="m183.472656 148.203125c0-23.097656 15.273438-42.625 36.273438-49.039063-4.742188-1.453124-9.78125-2.238281-15-2.238281-28.320313 0-51.277344 22.957031-51.277344 51.277344s22.957031 51.277344 51.277344 51.277344c5.21875 0 10.257812-.785157 15-2.234375-21-6.417969-36.273438-25.941406-36.273438-49.042969zm0 0" fill="#f49d31"/><path d="m132.195312 237.042969c0-23.097657 15.277344-42.625 36.273438-49.042969-4.742188-1.449219-9.777344-2.234375-15-2.234375-28.320312 0-51.277344 22.957031-51.277344 51.277344 0 28.320312 22.960938 51.277343 51.277344 51.277343 5.222656 0 10.257812-.785156 15-2.238281-20.996094-6.414062-36.273438-25.941406-36.273438-49.039062zm0 0" fill="#f49d31"/><path d="m80.917969 325.894531c0-23.097656 15.277343-42.625 36.277343-49.042969-4.746093-1.449218-9.78125-2.234374-15.003906-2.234374-28.316406 0-51.273437 22.957031-51.273437 51.277343 0 28.320313 22.957031 51.277344 51.273437 51.277344 5.222656 0 10.257813-.785156 15.003906-2.234375-21-6.414062-36.277343-25.941406-36.277343-49.042969zm0 0" fill="#f49d31"/><path d="m492.140625 377.171875c-12.761719 0-457.496094 0-472.238281 0-6.835938 0-12.378906 4.558594-12.378906 10.179687 0 26.777344 26.394531 48.480469 58.957031 48.480469h379.085937c32.558594 0 58.957032-21.703125 58.957032-48.480469 0-5.621093-5.542969-10.179687-12.382813-10.179687zm0 0" fill="#4ec465"/><path d="m500.183594 379.625c-8.769532 17.722656-29.910156 30.226562-54.617188 30.226562-4.046875 0-372.710937 0-379.085937 0-24.707031 0-45.851563-12.503906-54.621094-30.226562-2.652344 1.867188-4.335937 4.632812-4.335937 7.726562 0 26.777344 26.394531 48.480469 58.957031 48.480469h379.085937c32.558594 0 58.957032-21.703125 58.957032-48.480469 0-3.09375-1.6875-5.859374-4.339844-7.726562zm0 0" fill="#40ad58"/><path d="m492.117188 369.601562h-43.117188c39.949219-35.78125 14.738281-102.554687-39.171875-102.554687-.269531 0-.539063.019531-.8125.023437 23.386719-39.070312-4.984375-88.875-50.464844-88.875-.269531 0-.535156.015626-.804687.019532 23.347656-39.027344-4.960938-88.859375-50.46875-88.859375-.265625 0-.53125.015625-.792969.019531 1.882813-3.148438 3.492187-6.503906 4.773437-10.039062 1.414063-3.894532-.597656-8.195313-4.488281-9.609376-3.894531-1.414062-8.195312.597657-9.609375 4.492188-6.261718 17.246094-22.804687 28.832031-41.160156 28.832031-24.136719 0-43.773438-19.636719-43.773438-43.773437 0-24.140625 19.636719-43.777344 43.773438-43.777344 18.355469 0 34.898438 11.589844 41.160156 28.835938 1.414063 3.894531 5.71875 5.90625 9.609375 4.488281 3.894531-1.414063 5.902344-5.714844 4.488281-9.609375-8.40625-23.15625-30.613281-38.714844-55.257812-38.714844-32.410156 0-58.777344 26.367188-58.777344 58.777344 0 10.996094 3.042969 21.289062 8.316406 30.097656-.273437-.003906-.542968-.019531-.816406-.019531-45.597656 0-73.792968 49.878906-50.46875 88.859375-.273437-.003906-.539062-.019532-.808594-.019532-45.515624 0-73.832031 49.832032-50.460937 88.875-.273437-.003906-.542969-.023437-.8125-.023437-53.855469 0-79.171875 66.726563-39.171875 102.554687h-43.117188c-10.964843 0-19.882812 7.929688-19.882812 17.679688 0 27.398438 23.492188 50.246094 54.398438 55.039062 9.738281 17.175782 28.164062 28.0625 48.085937 28.0625h136.015625c4.144531 0 7.5-3.359374 7.5-7.5 0-4.144531-3.355469-7.5-7.5-7.5h-136.015625c-10.953125 0-21.292969-4.519531-28.753906-12.121093h364.539062c-7.460937 7.601562-17.800781 12.121093-28.753906 12.121093h-136.015625c-4.144531 0-7.5 3.355469-7.5 7.5 0 4.140626 3.355469 7.5 7.5 7.5h136.015625c19.921875 0 38.347656-10.886718 48.085937-28.0625 30.902344-4.792968 54.398438-27.640624 54.398438-55.039062 0-9.75-8.917969-17.679688-19.882812-17.679688zm-82.289063-87.554687c24.140625 0 43.777344 19.640625 43.777344 43.777344s-19.636719 43.777343-43.777344 43.777343c-24.136719 0-43.773437-19.640624-43.773437-43.777343s19.636718-43.777344 43.773437-43.777344zm-256.382813 72.460937c3.1875 5.675782 7.289063 10.777344 12.109376 15.09375h-24.214844c4.816406-4.316406 8.917968-9.417968 12.105468-15.09375zm-.8125-58.78125c.269532.003907.539063.023438.8125.023438.273438 0 .542969-.019531.816407-.023438-.28125.46875-.550781.941407-.816407 1.414063-.265624-.472656-.535156-.945313-.8125-1.414063zm8.3125 30.097657c0-24.136719 19.636719-43.777344 43.777344-43.777344 24.136719 0 43.773438 19.640625 43.773438 43.777344s-19.636719 43.777343-43.773438 43.777343c-24.140625 0-43.777344-19.640624-43.777344-43.777343zm43.777344-60.171875c.265625.476562.535156.949218.816406 1.414062-.273437-.003906-.542968-.019531-.816406-.019531-.273437 0-.542968.015625-.8125.019531.277344-.464844.546875-.9375.8125-1.414062zm-.804687-58.761719c.269531.003906.535156.019531.804687.019531.269532 0 .535156-.015625.804688-.019531-.273438.460937-.539063.929687-.804688 1.402344-.261718-.472657-.527344-.941407-.804687-1.402344zm52.082031-13.695313c24.136719 0 43.773438 19.636719 43.773438 43.777344 0 24.136719-19.636719 43.773438-43.773438 43.773438s-43.777344-19.636719-43.777344-43.773438c0-24.140625 19.640625-43.777344 43.777344-43.777344zm-.804688-14.980468c.273438-.460938.539063-.929688.804688-1.398438.261719.46875.53125.9375.804688 1.398438-.269532-.003906-.535157-.019532-.804688-.019532s-.535156.015626-.804688.019532zm1.621094 117.511718c-.28125.46875-.550781.941407-.816406 1.414063-.265625-.472656-.535156-.945313-.8125-1.414063.269531.003907.539062.023438.8125.023438s.542969-.019531.816406-.023438zm-.816406 58.78125c3.1875 5.675782 7.289062 10.777344 12.105469 15.09375h-24.214844c4.820313-4.316406 8.917969-9.417968 12.109375-15.09375zm7.5-28.683593c0-24.136719 19.636719-43.777344 43.777344-43.777344 24.136718 0 43.773437 19.640625 43.773437 43.777344s-19.636719 43.777343-43.773437 43.777343c-24.140625 0-43.777344-19.640624-43.777344-43.777343zm43.777344-60.171875c.265625.476562.535156.949218.8125 1.414062-.269532-.003906-.539063-.019531-.8125-.019531-.273438 0-.542969.015625-.816406.019531.28125-.464844.546874-.9375.816406-1.414062zm-.808594-58.761719c.273438.003906.539062.019531.808594.019531.269531 0 .535156-.015625.804687-.019531-.277343.460937-.542969.929687-.804687 1.398437-.265625-.46875-.53125-.9375-.808594-1.398437zm52.082031 147.617187c3.191407 5.675782 7.289063 10.777344 12.109375 15.09375h-24.214844c4.820313-4.316406 8.917969-9.417968 12.105469-15.09375zm-.8125-58.78125c.273438.003907.542969.023438.8125.023438.273438 0 .542969-.019531.816407-.023438-.28125.46875-.546876.941407-.816407 1.414063-.265625-.472656-.53125-.945313-.8125-1.414063zm.8125-102.53125c24.140625 0 43.777344 19.636719 43.777344 43.777344 0 24.136719-19.636719 43.773438-43.777344 43.773438-24.136719 0-43.773437-19.636719-43.773437-43.773438 0-24.140625 19.636718-43.777344 43.773437-43.777344zm-51.273437-88.839843c24.136718 0 43.773437 19.640625 43.773437 43.777343 0 24.136719-19.636719 43.777344-43.773437 43.777344-24.140625 0-43.777344-19.640625-43.777344-43.777344 0-24.140624 19.636719-43.777343 43.777344-43.777343zm-51.277344 13.695312c.273438 0 .542969-.011719.8125-.015625-.277344.46875-.546875.941406-.8125 1.414063-.269531-.476563-.539062-.949219-.816406-1.417969.273437.003906.542968.019531.816406.019531zm-51.277344-13.695312c24.140625 0 43.777344 19.640625 43.777344 43.777343 0 24.136719-19.640625 43.777344-43.777344 43.777344-24.140625 0-43.777344-19.640625-43.777344-43.777344 0-24.140624 19.636719-43.777343 43.777344-43.777343zm-51.277344 88.839843c24.140626 0 43.777344 19.636719 43.777344 43.777344 0 24.136719-19.640625 43.773438-43.777344 43.773438-24.136718 0-43.777343-19.636719-43.777343-43.773438 0-24.140625 19.640625-43.777344 43.777343-43.777344zm-95.050781 132.628907c0-24.136719 19.636719-43.777344 43.777344-43.777344 24.136719 0 43.773437 19.640625 43.773437 43.777344s-19.636718 43.777343-43.773437 43.777343c-24.140625 0-43.777344-19.640624-43.777344-43.777343zm387.148438 102.4375h-379.085938c-27.820312 0-51.457031-17.96875-51.457031-40.980469 0-1.066406 1.945312-2.679688 4.882812-2.679688h472.234376c2.9375 0 4.882812 1.613282 4.882812 2.679688 0 23.304688-23.992188 40.980469-51.457031 40.980469zm0 0"/></svg>