<svg height="512" viewBox="0 0 59 58" width="512" xmlns="http://www.w3.org/2000/svg"><g id="050---Samosas" fill="none" transform="translate(-1)"><path id="Shape" d="m25 11v.58c.2532647 4.6867455 1.8540042 9.2007615 4.61 13l19.42 4.56c2.3309134-.8085559 4.3956849-2.2404074 5.97-4.14 5-6 4-14 4-14z" fill="#a56a43"/><path id="Shape" d="m32.28 20c-3.81-1.72-7.28-4.85-7.28-9 0-6.08 7.61-11 17-11s17 4.92 17 11c0 5.46-6.15 10-14.22 10.83z" fill="#cb8252"/><path id="Shape" d="m55 11c-.0010309.5361918-.1098539 1.0667036-.32 1.56-4.35-6.06-21-6.07-25.36 0-.2101461-.4932964-.3189691-1.0238082-.32-1.56 0-3.87 5.82-7 13-7s13 3.13 13 7z" fill="#805333"/><path id="Shape" d="m54.68 12.56c-1.28 3-6.2 5.29-12.14 5.42l-8.28-1.36c-2.45-1-4.24-2.41-4.94-4.06 4.35-6.06 21-6.07 25.36 0z" fill="#c03a2b"/><path id="Shape" d="m35 50h21.08c1.0847575-.0449739 2.064466-.6613646 2.5745245-1.619781.5100584-.9584163.4740881-2.11534-.0945245-3.040219l-18.08-30.88c-.4908481-.9252659-1.452599-1.5037647-2.5-1.5037647s-2.0091519.5784988-2.5 1.5037647l-7.82 13.43z" fill="#f0c419"/><path id="Shape" d="m40.08 58h-36.16c-1.0847575-.0449739-2.064466-.6613646-2.57452447-1.619781-.51005847-.9584163-.47408817-2.11534.09452447-3.040219l18.08-30.88c.4908481-.9252659 1.452599-1.5037647 2.5-1.5037647s2.0091519.5784988 2.5 1.5037647l18.04 30.88c.5686126.924879.6045829 2.0818027.0945245 3.040219-.5100585.9584164-1.489767 1.5748071-2.5745245 1.619781z" fill="#f0c419"/><g fill="#f29c1f"><path id="Shape" d="m40.08 58h-4.08c-9.88-10.7-10.27-27.49-10.09-33.1l16.65 28.44c.5686126.924879.6045829 2.0818027.0945245 3.040219-.5100585.9584164-1.489767 1.5748071-2.5745245 1.619781z"/><path id="Shape" d="m56.08 50h-4.08c-9.88-10.7-10.27-27.49-10.09-33.1l16.65 28.44c.5686126.924879.6045829 2.0818027.0945245 3.040219-.5100585.9584164-1.489767 1.5748071-2.5745245 1.619781z"/></g></g></svg>