<?xml version="1.0" encoding="iso-8859-1"?>
<!-- Generator: Adobe Illustrator 21.0.0, SVG Export Plug-In . SVG Version: 6.00 Build 0)  -->
<svg xmlns="http://www.w3.org/2000/svg" xmlns:xlink="http://www.w3.org/1999/xlink" version="1.1" id="Capa_1" x="0px" y="0px" viewBox="0 0 512 512" style="enable-background:new 0 0 512 512;" xml:space="preserve" width="512" height="512">
<g>
	<g>
		<g>
			<circle style="fill:#1F5F8F;" cx="256" cy="256" r="256"/>
		</g>
	</g>
	<path style="fill:#0F3E56;" d="M512,256c0-0.529-0.017-1.055-0.02-1.583l-51.57-51.57l-4.257,10.803l-71.729-71.729L60,209.324   l-6.361,101.75l200.907,200.907c0.485,0.003,0.968,0.019,1.454,0.019C397.385,512,512,397.385,512,256z"/>
	<g>
		<path style="fill:#FFFFFF;" d="M421.587,325.105H90.413c-30.503,0-55.319-24.816-55.319-55.319v-27.572    c0-30.503,24.816-55.319,55.319-55.319h331.174c30.503,0,55.319,24.816,55.319,55.319v27.572    C476.906,300.289,452.09,325.105,421.587,325.105z M90.413,216.895c-13.961,0-25.319,11.358-25.319,25.319v27.572    c0,13.961,11.358,25.319,25.319,25.319h331.174c13.961,0,25.319-11.358,25.319-25.319v-27.572    c0-13.961-11.358-25.319-25.319-25.319H90.413z"/>
	</g>
	<g>
		<path style="fill:#E9EDF5;" d="M421.587,186.895H255.595v30h165.992c13.961,0,25.319,11.358,25.319,25.319v27.572    c0,13.961-11.358,25.319-25.319,25.319H255v30h166.587c30.503,0,55.319-24.816,55.319-55.319v-27.572    C476.906,211.711,452.09,186.895,421.587,186.895z"/>
	</g>
	<g>
		<g>
			<circle style="fill:#FFFFFF;" cx="256" cy="256" r="171.785"/>
		</g>
	</g>
	<g>
		<g>
			<path style="fill:#E9EDF5;" d="M256,84.215c-0.135,0-0.27,0.005-0.405,0.005v343.56c0.135,0,0.269,0.005,0.405,0.005     c94.874,0,171.785-76.911,171.785-171.785C427.785,161.126,350.874,84.215,256,84.215z"/>
		</g>
	</g>
	<g>
		<g>
			<circle style="fill:#FFCE00;" cx="256" cy="256" r="138.5"/>
		</g>
	</g>
	<g>
		<g>
			<path style="fill:#FFA300;" d="M256,117.5c-0.135,0-0.27,0.005-0.405,0.005v276.99c0.135,0,0.269,0.005,0.405,0.005     c76.491,0,138.5-62.009,138.5-138.5C394.5,179.509,332.491,117.5,256,117.5z"/>
			<path style="fill:#FFCE00;" d="M117.5,256c0,76.356,61.79,138.276,138.095,138.495v-276.99     C179.29,117.724,117.5,179.644,117.5,256z"/>
		</g>
	</g>
	<g>
		<path style="fill:#DE4726;" d="M167.354,231.543c-6.182-4.238-7.759-12.686-3.52-18.868c4.238-6.183,12.809-31.942,18.992-27.704    c6.182,4.238,16.708,37.526,12.47,43.708C191.057,234.861,173.537,235.781,167.354,231.543z"/>
	</g>
	<g>
		<path style="fill:#DE4726;" d="M290.706,254.274c0,9.264-7.51,16.774-16.774,16.774c-9.264,0-41.513,9.264-41.513,0    s26.577-43.256,35.841-43.256C277.525,227.792,290.706,245.01,290.706,254.274z"/>
	</g>
	<g>
		<path style="fill:#C42F12;" d="M268.261,227.792c-2.943,0-7.635,3.437-12.666,8.416v37.463c7.429-1.178,14.677-2.623,18.337-2.623    c9.264,0,16.774-7.51,16.774-16.774S277.525,227.792,268.261,227.792z"/>
	</g>
	<g>
		<path style="fill:#DE4726;" d="M274.146,173.675c0,7.496-6.077,13.572-13.572,13.572c-7.496,0-33.589,7.496-33.589,0    s21.504-34.999,29-34.999S274.146,166.179,274.146,173.675z"/>
	</g>
	<g>
		<path style="fill:#C42F12;" d="M255.985,152.248c-0.123,0-0.259,0.027-0.39,0.042v35.462c2.024-0.302,3.753-0.505,4.978-0.505    c7.496,0,13.572-6.077,13.572-13.572C274.146,166.179,263.481,152.248,255.985,152.248z"/>
	</g>
	<g>
		<path style="fill:#C42F12;" d="M359.215,294.17c0,7.496-6.077,13.572-13.572,13.572c-7.496,0-33.589,7.496-33.589,0    S342.504,256,350,256S359.215,286.674,359.215,294.17z"/>
	</g>
	<g>
		<path style="fill:#DE4726;" d="M198.215,294.17c0,7.496-6.077,13.572-13.572,13.572s-33.589,7.496-33.589,0S181.504,256,189,256    S198.215,286.674,198.215,294.17z"/>
	</g>
	<g>
		<path style="fill:#DE4726;" d="M268.146,347.336c0,7.496-6.077,13.572-13.572,13.572s-33.589-27.503-33.589-34.999s21.504,0,29,0    C257.481,325.909,268.146,339.84,268.146,347.336z"/>
	</g>
	<g>
		<path style="fill:#C42F12;" d="M268.146,347.335c0-5.74-6.255-15.248-12.551-19.389v32.91    C262.612,360.332,268.146,354.486,268.146,347.335z"/>
	</g>
	<g>
		<path style="fill:#C42F12;" d="M350.161,214.918c0,7.496-6.077,13.572-13.572,13.572S303,200.986,303,193.491s21.504,0,29,0    S350.161,207.422,350.161,214.918z"/>
	</g>
	<g>
		<circle style="fill:#8CD302;" cx="206.504" cy="162.477" r="10.229"/>
	</g>
	<g>
		<circle style="fill:#6FB500;" cx="287.298" cy="308.852" r="13.152"/>
	</g>
	<g>
		<circle style="fill:#6FB500;" cx="295.149" cy="349.594" r="7.851"/>
	</g>
	<g>
		<circle style="fill:#6FB500;" cx="303.779" cy="159.254" r="12.159"/>
	</g>
	<g>
		<circle style="fill:#8CD302;" cx="198.065" cy="335.678" r="8.439"/>
	</g>
</g>















</svg>
